Coordinates
version=1
nRows=50
nColumns=24
inDegrees=yes

Units are S.I. units (second, meters, Newtons, ...)
If the header above contains a line with 'inDegrees', this indicates whether rotational values are in degrees (yes) or radians (no).

endheader
time	pelvis_tilt	pelvis_list	pelvis_rotation	pelvis_tx	pelvis_ty	pelvis_tz	hip_flexion_r	hip_adduction_r	hip_rotation_r	knee_angle_r	ankle_angle_r	subtalar_angle_r	mtp_angle_r	hip_flexion_l	hip_adduction_l	hip_rotation_l	knee_angle_l	ankle_angle_l	subtalar_angle_l	mtp_angle_l	lumbar_extension	lumbar_bending	lumbar_rotation
6.700000	9.642888	2.175045	-180.308160	0.273036	0.672277	-1.217889	54.068223	-23.670874	-17.851726	-81.552337	31.455778	8.262386	0.000000	56.121896	-30.351395	-13.532713	-80.864904	31.174773	16.640387	0.000000	-6.881021	1.837223	3.164818
6.705000	9.621280	2.193026	-180.341150	0.273318	0.669123	-1.217903	54.480767	-23.814370	-17.737333	-82.292604	31.769462	8.343938	0.000000	56.599221	-30.562753	-13.312379	-81.744778	31.392161	16.719793	0.000000	-6.948300	1.854326	3.189063
6.710000	9.613931	2.238208	-180.356387	0.273616	0.666008	-1.217881	54.879387	-23.919044	-17.623221	-82.990955	32.086247	8.358490	0.000000	57.060643	-30.749641	-13.096889	-82.398194	31.769593	16.791325	0.000000	-7.008618	1.853863	3.330249
6.715000	9.623830	2.259637	-180.398362	0.273883	0.662840	-1.217814	55.304470	-24.036766	-17.490975	-83.677327	32.372628	8.417438	0.000000	57.534860	-30.939602	-12.881442	-83.170908	32.052506	16.912877	0.000000	-7.036072	1.955481	3.253891
6.720000	9.578728	2.230677	-180.337741	0.274236	0.659677	-1.217867	55.678237	-24.246084	-17.354677	-84.392072	32.701068	8.481082	0.000000	58.076385	-31.037775	-12.380135	-83.907831	32.138997	17.405589	0.000000	-7.148479	1.898333	3.169892
6.725000	9.573694	2.258383	-180.360371	0.274431	0.656601	-1.217912	56.068135	-24.345842	-17.227330	-85.067382	32.996227	8.543581	0.000000	58.518135	-31.211493	-12.152792	-84.582183	32.462332	17.523364	0.000000	-7.193436	1.881847	3.286474
6.730000	9.510456	2.297237	-180.363265	0.274695	0.653508	-1.217863	56.403093	-24.469435	-17.125818	-85.758328	33.306980	8.559463	0.000000	58.938073	-31.368992	-11.881634	-85.284602	32.774539	17.612483	0.000000	-7.299771	1.974117	3.213489
6.735000	9.496442	2.303660	-180.369745	0.274919	0.650440	-1.217791	56.798715	-24.620423	-16.994808	-86.447860	33.601321	8.612898	0.000000	59.374700	-31.505980	-11.652175	-85.964077	33.066742	17.708639	0.000000	-7.365313	1.988472	3.191869
6.740000	9.528566	2.348090	-180.405139	0.275136	0.647437	-1.217769	57.210161	-24.701484	-16.879810	-87.086287	33.877601	8.645711	0.000000	59.830458	-31.666244	-11.494815	-86.586834	33.380092	17.600488	0.000000	-7.378013	2.015500	3.276148
6.745000	9.460036	2.336155	-180.357711	0.275446	0.644457	-1.217828	57.530772	-24.876333	-16.748246	-87.754773	34.158134	8.698100	0.000000	60.211116	-31.733868	-11.202117	-87.243342	33.680410	17.754937	0.000000	-7.501585	2.019487	3.169878
6.750000	9.453855	2.347400	-180.349734	0.275598	0.641572	-1.217872	57.877823	-25.014585	-16.639447	-88.371223	34.444733	8.796446	0.000000	60.629809	-31.843738	-10.993989	-87.843705	33.927722	17.758771	0.000000	-7.564824	2.009011	3.173475
6.755000	9.400849	2.371610	-180.330464	0.275848	0.638636	-1.217947	58.190896	-25.147925	-16.544623	-89.008295	34.742220	8.844200	0.000000	61.036818	-31.954650	-10.709638	-88.479314	34.187800	17.824232	0.000000	-7.658933	2.036387	3.122696
6.760000	9.368000	2.395068	-180.326996	0.275995	0.635809	-1.217870	58.511780	-25.280436	-16.436822	-89.619473	35.012864	8.893171	0.000000	61.420011	-32.059692	-10.461853	-89.080439	34.485427	17.869531	0.000000	-7.730636	2.056739	3.136652
6.765000	9.322508	2.412952	-180.354188	0.276126	0.632978	-1.217915	58.835356	-25.392157	-16.322739	-90.243046	35.304098	8.892345	0.000000	61.766134	-32.211283	-10.241268	-89.696199	34.813895	17.917686	0.000000	-7.828693	2.067374	3.158615
6.770000	9.349694	2.497974	-180.374991	0.276124	0.630321	-1.217626	59.140313	-25.483354	-16.271393	-90.767775	35.535563	9.026966	0.000000	62.226820	-32.335334	-9.946768	-90.284367	35.041170	17.933186	0.000000	-7.720515	1.559059	4.705288
6.775000	9.316079	2.407799	-180.341451	0.276514	0.627419	-1.217942	59.537802	-25.666375	-16.064827	-91.409546	35.771746	9.027034	0.000000	62.581974	-32.366714	-9.775147	-90.847030	35.251360	18.029430	0.000000	-7.923550	2.055438	3.123691
6.780000	9.350526	2.434818	-180.361165	0.276615	0.624762	-1.217974	59.869368	-25.742142	-15.844764	-91.913185	36.157085	9.607744	0.000000	62.998972	-32.482685	-9.552017	-91.395529	35.456353	18.053180	0.000000	-7.920301	2.055233	3.214143
6.785000	9.376603	2.512678	-180.367422	0.276567	0.622240	-1.217724	60.176289	-25.858909	-15.906095	-92.455725	36.228076	9.343933	0.000000	63.418581	-32.584746	-9.271136	-91.936070	35.727710	18.068347	0.000000	-7.829948	1.504941	4.764010
6.790000	9.296579	2.452302	-180.362933	0.276965	0.619450	-1.218048	60.527716	-25.991625	-15.716257	-93.090078	36.479417	9.242193	0.000000	63.724901	-32.655640	-9.084031	-92.492855	35.961814	18.107467	0.000000	-8.061261	2.065294	3.174403
6.795000	9.294620	2.478116	-180.358557	0.276996	0.616937	-1.218025	60.817059	-26.110829	-15.637219	-93.609786	36.704080	9.331583	0.000000	64.095345	-32.743859	-8.846789	-93.010093	36.183313	18.130886	0.000000	-8.120861	2.076467	3.195350
6.800000	9.277874	2.490134	-180.354883	0.277203	0.614343	-1.218141	61.124714	-26.202767	-15.511446	-94.141522	36.934635	9.382754	0.000000	64.468547	-32.822631	-8.591813	-93.542925	36.380096	18.182974	0.000000	-8.167547	2.086678	3.182283
6.805000	9.226342	2.482020	-180.349640	0.277277	0.611850	-1.218193	61.381419	-26.324561	-15.392770	-94.661382	37.184906	9.382830	0.000000	64.768165	-32.896812	-8.386932	-94.056539	36.620691	18.230243	0.000000	-8.266440	2.065764	3.200682
6.810000	9.270195	2.501379	-180.352608	0.277351	0.609371	-1.218193	61.725898	-26.423919	-15.293846	-95.161319	37.384873	9.443863	0.000000	65.176277	-32.980651	-8.153172	-94.556263	36.815136	18.331688	0.000000	-8.276629	2.052273	3.261212
6.815000	9.240518	2.578100	-180.399597	0.277367	0.606994	-1.218322	61.971048	-26.456879	-15.258116	-95.667984	37.578490	9.451209	0.000000	65.384281	-33.203562	-8.303764	-95.272912	37.512997	18.017366	0.000000	-8.329649	2.138165	3.332929
6.820000	9.188483	2.583257	-180.422339	0.277494	0.604571	-1.218375	62.247182	-26.550204	-15.142655	-96.193579	37.807383	9.423956	0.000000	65.679642	-33.293221	-8.089810	-95.775150	37.753948	18.024338	0.000000	-8.437059	2.156476	3.333540
6.825000	9.222455	2.614810	-180.441859	0.277586	0.602185	-1.218427	62.562323	-26.607445	-15.040918	-96.658717	37.971130	9.490007	0.000000	66.067504	-33.391984	-7.858577	-96.241851	37.933032	18.071187	0.000000	-8.456898	2.135906	3.461121
6.830000	9.224292	2.601311	-180.405530	0.277800	0.599807	-1.218515	62.851851	-26.744275	-14.934817	-97.120106	38.150476	9.590992	0.000000	66.416118	-33.400623	-7.639629	-96.689396	38.103580	18.144629	0.000000	-8.507396	2.146200	3.389543
6.835000	9.224848	2.626081	-180.401207	0.277910	0.597527	-1.218575	63.108780	-26.825278	-14.845561	-97.560650	38.349074	9.686884	0.000000	66.760552	-33.465033	-7.410724	-97.144028	38.289633	18.192448	0.000000	-8.565711	2.170300	3.380161
6.840000	9.223144	2.656858	-180.423468	0.278009	0.595304	-1.218623	63.382754	-26.891446	-14.756663	-98.016251	38.519824	9.766132	0.000000	67.095095	-33.550759	-7.186584	-97.598630	38.480526	18.220643	0.000000	-8.630418	2.196967	3.416341
6.845000	9.242164	2.685975	-180.445725	0.278061	0.593160	-1.218617	63.664560	-26.961482	-14.678505	-98.447741	38.698762	9.773473	0.000000	67.426752	-33.619129	-6.993258	-97.997198	38.651501	18.146817	0.000000	-8.666110	2.217053	3.483198
6.850000	9.238232	2.696114	-180.457828	0.278146	0.590999	-1.218667	63.930237	-27.043570	-14.582198	-98.883898	38.892850	9.771766	0.000000	67.736585	-33.678627	-6.789584	-98.430164	38.840775	18.140686	0.000000	-8.739652	2.230470	3.496277
6.855000	9.244550	2.699643	-180.458293	0.278277	0.588840	-1.218706	64.206807	-27.127137	-14.469493	-99.307177	39.035111	9.816630	0.000000	68.055657	-33.705643	-6.583936	-98.848541	39.022017	18.149509	0.000000	-8.794751	2.233094	3.505502
6.860000	9.240396	2.701426	-180.460538	0.278414	0.586715	-1.218828	64.470327	-27.199202	-14.358323	-99.725525	39.203380	9.855006	0.000000	68.376685	-33.750196	-6.360056	-99.274567	39.144063	18.202007	0.000000	-8.848826	2.240665	3.494115
6.865000	9.237120	2.736760	-180.452945	0.278440	0.584733	-1.218867	64.689377	-27.267526	-14.299423	-100.114615	39.324849	9.942966	0.000000	68.677377	-33.790044	-6.143876	-99.650041	39.279730	18.194944	0.000000	-8.910617	2.250084	3.545175
6.870000	9.200853	2.761636	-180.485489	0.278506	0.582740	-1.218969	64.915619	-27.301113	-14.198623	-100.529803	39.493291	9.961112	0.000000	68.959027	-33.866693	-5.898611	-100.081763	39.445447	18.228184	0.000000	-9.003252	2.278681	3.565599
6.875000	9.211691	2.819832	-180.492238	0.278554	0.580776	-1.218974	65.143508	-27.351448	-14.159622	-100.914651	39.633547	10.020819	0.000000	69.287025	-33.922375	-5.659287	-100.433231	39.672505	18.247069	0.000000	-9.044429	2.335421	3.622401
6.880000	9.177712	2.834031	-180.487860	0.278587	0.578904	-1.219016	65.334688	-27.419787	-14.077237	-101.293140	39.782115	10.012046	0.000000	69.536474	-33.948999	-5.452918	-100.810123	39.832261	18.225105	0.000000	-9.137432	2.352248	3.631356
6.885000	9.140428	2.878667	-180.492831	0.278772	0.576954	-1.219086	65.527421	-27.451113	-13.997742	-101.667183	39.905234	10.072345	0.000000	69.824407	-33.987422	-5.195418	-101.189988	39.949302	18.203132	0.000000	-9.134871	2.134224	4.336242
6.890000	9.173868	2.874390	-180.455029	0.278701	0.575201	-1.219137	65.752636	-27.547567	-13.912396	-102.007904	40.025319	10.115777	0.000000	70.101326	-33.967461	-5.013991	-101.516209	40.099774	18.244740	0.000000	-9.260733	2.342893	3.675515
6.895000	9.190224	2.922801	-180.471785	0.278747	0.573390	-1.219269	65.979164	-27.574424	-13.872140	-102.366892	40.135153	10.163811	0.000000	70.419231	-34.028731	-4.770603	-101.864256	40.191972	18.213534	0.000000	-9.298885	2.393272	3.667184
6.900000	9.200051	2.894804	-180.474460	0.278792	0.571609	-1.219173	66.252539	-27.669641	-13.730742	-102.734698	40.241500	10.197836	0.000000	70.777974	-33.972529	-4.235007	-102.040713	39.992295	18.647097	0.000000	-9.348792	2.365393	3.661986
6.905000	9.143725	2.974162	-180.479356	0.278772	0.569872	-1.219290	66.367245	-27.685570	-13.723751	-103.087915	40.392156	10.203876	0.000000	70.916614	-34.071895	-4.360399	-102.524155	40.400603	18.094074	0.000000	-9.450479	2.439217	3.701981
6.910000	9.187171	2.892177	-180.440251	0.278833	0.568139	-1.219102	66.669555	-27.839085	-13.530625	-103.419703	40.502842	10.260759	0.000000	71.330865	-33.924964	-3.721031	-102.657230	40.087556	18.781073	0.000000	-9.464080	2.325175	3.741404
6.915000	9.138323	2.975044	-180.438282	0.278843	0.566492	-1.219397	66.765131	-27.826848	-13.534805	-103.744662	40.636851	10.281101	0.000000	71.436743	-34.063693	-3.938824	-103.174665	40.670893	18.344950	0.000000	-9.557850	2.421337	3.670816
6.920000	9.160911	2.967157	-180.406112	0.278882	0.564909	-1.219467	66.981173	-27.906749	-13.444456	-104.050454	40.753877	10.362748	0.000000	71.657434	-34.038014	-3.840658	-103.433429	40.773384	18.159567	0.000000	-9.601336	2.428658	3.554352
6.925000	9.128872	2.973629	-180.401083	0.278916	0.563328	-1.219561	67.152207	-27.948782	-13.350520	-104.377342	40.880650	10.365771	0.000000	71.863340	-34.060382	-3.669428	-103.744302	40.891075	18.160482	0.000000	-9.691317	2.400427	3.604712
6.930000	9.131621	2.994762	-180.426485	0.278978	0.561685	-1.219572	67.372621	-27.968388	-13.256409	-104.703399	40.977810	10.393917	0.000000	72.120680	-34.106127	-3.483920	-104.061978	41.003878	18.171517	0.000000	-9.743324	2.394149	3.698662
6.935000	9.114069	2.999625	-180.440903	0.278974	0.560143	-1.219599	67.560902	-28.012148	-13.160465	-105.019117	41.065755	10.400113	0.000000	72.323653	-34.131557	-3.320745	-104.372950	41.102810	18.180902	0.000000	-9.806932	2.389587	3.736153
6.940000	9.129563	2.994949	-180.438362	0.278947	0.558627	-1.219623	67.761430	-28.058336	-13.056220	-105.304328	41.159248	10.427872	0.000000	72.548813	-34.146569	-3.181275	-104.654223	41.195440	18.201224	0.000000	-9.836127	2.373496	3.740713
6.945000	9.123487	2.984262	-180.440964	0.279035	0.557122	-1.219836	67.956994	-28.081878	-12.948042	-105.595887	41.248650	10.454028	0.000000	72.758233	-34.173718	-3.038155	-104.920179	41.273999	18.229280	0.000000	-9.909097	2.341275	3.695312
